<?xml version="1.0" standalone="no"?>
<!DOCTYPE svg PUBLIC "-//W3C//DTD SVG 20010904//EN"
 "http://www.w3.org/TR/2001/REC-SVG-20010904/DTD/svg10.dtd">
<svg version="1.0" xmlns="http://www.w3.org/2000/svg"
 width="512.000000pt" height="512.000000pt" viewBox="0 0 512.000000 512.000000"
 preserveAspectRatio="xMidYMid meet">
<metadata>
Created by potrace 1.11, written by Peter Selinger 2001-2013
</metadata>
<g transform="translate(0.000000,512.000000) scale(0.100000,-0.100000)"
fill="#000000" stroke="none">
<path d="M2335 5100 c-27 -5 -66 -11 -85 -13 -19 -3 -64 -13 -100 -22 -36 -8
-73 -18 -83 -20 -65 -15 -216 -82 -303 -135 -306 -186 -507 -512 -569 -925
-11 -69 -14 -468 -4 -525 5 -30 11 -73 14 -95 3 -22 12 -65 20 -95 9 -30 18
-64 20 -76 12 -54 101 -242 137 -289 99 -128 136 -170 194 -224 151 -139 404
-315 604 -419 19 -10 73 -39 120 -64 47 -25 161 -85 253 -132 93 -47 200 -106
238 -131 38 -25 74 -45 78 -45 5 0 11 -3 13 -8 2 -4 25 -25 51 -47 102 -82
182 -219 203 -346 9 -49 9 -177 2 -225 -16 -97 -90 -232 -158 -287 -113 -93
-203 -122 -380 -122 -127 0 -205 11 -290 39 -178 61 -278 177 -334 387 l-22
84 -407 1 -408 1 6 -41 c10 -65 14 -88 21 -141 3 -27 8 -52 9 -55 2 -3 6 -26
10 -50 9 -61 59 -245 84 -308 81 -205 212 -385 367 -504 61 -47 198 -128 216
-128 5 0 22 -7 36 -15 53 -28 231 -79 317 -89 28 -3 66 -9 85 -13 19 -4 134
-7 255 -8 276 0 353 8 527 59 81 24 256 98 268 114 3 4 21 16 40 26 97 53 254
204 325 313 21 32 42 60 45 63 4 3 27 46 52 95 83 164 141 365 166 580 9 77 8
456 -1 515 -4 25 -10 62 -13 83 -9 67 -42 184 -74 264 -29 73 -109 219 -134
246 -6 7 -29 35 -51 62 -48 60 -176 187 -225 223 -19 14 -39 31 -45 36 -16 18
-175 121 -252 164 -40 23 -232 119 -425 215 -412 204 -506 262 -623 383 -86
89 -129 179 -144 304 -10 83 -7 172 9 240 6 25 11 48 11 52 0 4 12 31 28 59
83 151 238 228 471 233 207 6 351 -43 462 -156 77 -78 117 -177 133 -330 l6
-56 397 1 397 2 -1 25 c-2 72 -20 238 -30 280 -11 49 -15 65 -19 90 -18 116
-103 324 -175 430 -55 82 -63 91 -137 162 -75 74 -149 126 -250 176 -68 34
-158 70 -158 63 0 -1 -13 3 -30 9 -36 14 -144 39 -200 46 -22 3 -56 7 -75 10
-60 9 -432 12 -485 4z"/>
</g>
</svg>
